<mxfile host="65bd71144e">
    <diagram id="q-Rn_KdKPqpTqxpc6I7r" name="Page-1">
        <mxGraphModel dx="1074" dy="426" grid="1" gridSize="10" guides="1" tooltips="1" connect="1" arrows="1" fold="1" page="1" pageScale="1" pageWidth="827" pageHeight="1169" background="#ffffff" math="0" shadow="0">
            <root>
                <mxCell id="0"/>
                <mxCell id="1" parent="0"/>
                <mxCell id="6" value="E" style="rounded=0;orthogonalLoop=1;jettySize=auto;html=1;exitX=1;exitY=0.5;exitDx=0;exitDy=0;entryX=0;entryY=0.5;entryDx=0;entryDy=0;fontFamily=Lucida Console;fontSize=12;fontColor=#000000;labelBorderColor=none;labelBackgroundColor=none;strokeColor=#000;" parent="1" source="2" target="5" edge="1">
                    <mxGeometry x="0.0588" y="10" relative="1" as="geometry">
                        <mxPoint as="offset"/>
                    </mxGeometry>
                </mxCell>
                <mxCell id="36" value="T" style="edgeStyle=none;rounded=0;orthogonalLoop=1;jettySize=auto;html=1;exitX=0.5;exitY=1;exitDx=0;exitDy=0;entryX=0.5;entryY=0;entryDx=0;entryDy=0;fontFamily=Lucida Console;fontSize=12;fontColor=#000000;labelBorderColor=none;labelBackgroundColor=none;strokeColor=#000;" parent="1" source="2" target="30" edge="1">
                    <mxGeometry y="10" relative="1" as="geometry">
                        <mxPoint as="offset"/>
                    </mxGeometry>
                </mxCell>
                <mxCell id="37" value="n" style="edgeStyle=none;rounded=0;orthogonalLoop=1;jettySize=auto;html=1;exitX=1;exitY=1;exitDx=0;exitDy=0;entryX=0;entryY=0;entryDx=0;entryDy=0;fontFamily=Lucida Console;fontSize=12;fontColor=#000000;labelBorderColor=none;labelBackgroundColor=none;strokeColor=#000;" parent="1" source="2" target="23" edge="1">
                    <mxGeometry x="-0.0192" y="10" relative="1" as="geometry">
                        <mxPoint as="offset"/>
                    </mxGeometry>
                </mxCell>
                <mxCell id="38" value="F" style="edgeStyle=none;rounded=0;orthogonalLoop=1;jettySize=auto;html=1;exitX=1;exitY=1;exitDx=0;exitDy=0;entryX=0;entryY=0;entryDx=0;entryDy=0;fontFamily=Lucida Console;fontSize=12;fontColor=#000000;labelBorderColor=none;labelBackgroundColor=none;strokeColor=#000;" parent="1" source="2" target="26" edge="1">
                    <mxGeometry y="-14" relative="1" as="geometry">
                        <mxPoint as="offset"/>
                    </mxGeometry>
                </mxCell>
                <mxCell id="2" value="&lt;font face=&quot;Lucida Console&quot; style=&quot;font-size: 12px&quot;&gt;&lt;font style=&quot;font-size: 12px&quot;&gt;E' →&amp;nbsp;•E $&amp;nbsp; &amp;nbsp;&amp;nbsp;&lt;br&gt;E&amp;nbsp; →&amp;nbsp;•E &quot;+&quot; T&lt;br&gt;E&amp;nbsp; →&amp;nbsp;•T&amp;nbsp; &amp;nbsp; &amp;nbsp;&amp;nbsp;&lt;br&gt;&lt;/font&gt;T&amp;nbsp; →&amp;nbsp;•T &quot;*&quot; F&lt;br&gt;T&amp;nbsp; →&amp;nbsp;•F&amp;nbsp; &amp;nbsp; &amp;nbsp;&amp;nbsp;&lt;br&gt;F&amp;nbsp; →&amp;nbsp;•n&amp;nbsp; &amp;nbsp; &amp;nbsp;&amp;nbsp;&lt;/font&gt;&lt;span style=&quot;font-family: &amp;#34;consolas&amp;#34; , &amp;#34;courier new&amp;#34; , monospace ; font-size: 14px&quot;&gt;&lt;br&gt;&lt;/span&gt;" style="rounded=0;whiteSpace=wrap;html=1;fontColor=#000000;labelBorderColor=none;labelBackgroundColor=none;fillColor=#FFFFFF;strokeColor=#000;" parent="1" vertex="1">
                    <mxGeometry x="40" y="40" width="120" height="120" as="geometry"/>
                </mxCell>
                <mxCell id="3" value="q&lt;sub&gt;0&lt;/sub&gt;" style="text;html=1;fillColor=none;align=center;verticalAlign=middle;whiteSpace=wrap;rounded=0;fontColor=#000000;labelBorderColor=none;labelBackgroundColor=none;" parent="1" vertex="1">
                    <mxGeometry x="80" y="20" width="40" height="20" as="geometry"/>
                </mxCell>
                <mxCell id="7" value="q&lt;sub&gt;1&lt;/sub&gt;" style="text;html=1;fillColor=none;align=center;verticalAlign=middle;whiteSpace=wrap;rounded=0;fontFamily=Lucida Console;fontSize=12;fontColor=#000000;labelBorderColor=none;labelBackgroundColor=none;" parent="1" vertex="1">
                    <mxGeometry x="240" y="20" width="40" height="20" as="geometry"/>
                </mxCell>
                <mxCell id="13" value="T" style="edgeStyle=none;rounded=0;orthogonalLoop=1;jettySize=auto;html=1;exitX=1;exitY=0.5;exitDx=0;exitDy=0;entryX=0;entryY=0.5;entryDx=0;entryDy=0;fontFamily=Lucida Console;fontSize=12;fontColor=#000000;labelBorderColor=none;labelBackgroundColor=none;strokeColor=#000;" parent="1" source="8" target="12" edge="1">
                    <mxGeometry y="10" relative="1" as="geometry">
                        <mxPoint as="offset"/>
                    </mxGeometry>
                </mxCell>
                <mxCell id="28" value="F" style="edgeStyle=none;rounded=0;orthogonalLoop=1;jettySize=auto;html=1;exitX=0.5;exitY=1;exitDx=0;exitDy=0;entryX=0.5;entryY=0;entryDx=0;entryDy=0;fontFamily=Lucida Console;fontSize=12;fontColor=#000000;labelBorderColor=none;labelBackgroundColor=none;strokeColor=#000;" parent="1" source="8" target="26" edge="1">
                    <mxGeometry x="-0.05" y="-9" relative="1" as="geometry">
                        <mxPoint as="offset"/>
                    </mxGeometry>
                </mxCell>
                <mxCell id="29" value="n" style="edgeStyle=none;rounded=0;orthogonalLoop=1;jettySize=auto;html=1;exitX=0.5;exitY=1;exitDx=0;exitDy=0;entryX=0.5;entryY=0;entryDx=0;entryDy=0;fontFamily=Lucida Console;fontSize=12;fontColor=#000000;labelBorderColor=none;labelBackgroundColor=none;strokeColor=#000;" parent="1" source="8" target="23" edge="1">
                    <mxGeometry y="10" relative="1" as="geometry">
                        <mxPoint as="offset"/>
                    </mxGeometry>
                </mxCell>
                <mxCell id="8" value="&lt;font style=&quot;font-size: 12px&quot;&gt;&lt;font&gt;E → E &quot;+&quot;&amp;nbsp;•T&lt;br&gt;T →&amp;nbsp;•T &quot;*&quot; F&lt;br&gt;T →&amp;nbsp;•F&amp;nbsp; &amp;nbsp; &amp;nbsp;&amp;nbsp;&lt;br&gt;F →&amp;nbsp;•n&amp;nbsp; &amp;nbsp; &amp;nbsp;&amp;nbsp;&lt;/font&gt;&lt;span style=&quot;&quot;&gt;&lt;br&gt;&lt;/span&gt;&lt;/font&gt;" style="rounded=0;whiteSpace=wrap;html=1;fontFamily=Lucida Console;fontSize=12;fontColor=#000000;labelBorderColor=none;labelBackgroundColor=none;fillColor=#FFFFFF;strokeColor=#000;" parent="1" vertex="1">
                    <mxGeometry x="360" y="40" width="120" height="80" as="geometry"/>
                </mxCell>
                <mxCell id="9" value="" style="group;fontColor=#000000;labelBorderColor=none;labelBackgroundColor=none;fillColor=#FFFFFF;strokeColor=#000;" parent="1" vertex="1" connectable="0">
                    <mxGeometry x="200" y="40" width="120" height="80" as="geometry"/>
                </mxCell>
                <mxCell id="5" value="" style="rounded=0;whiteSpace=wrap;html=1;fontFamily=Lucida Console;fontColor=#000000;labelBorderColor=none;labelBackgroundColor=none;strokeColor=#000;fillColor=#fff;" parent="9" vertex="1">
                    <mxGeometry width="120" height="80" as="geometry"/>
                </mxCell>
                <mxCell id="4" value="&lt;font style=&quot;font-size: 12px&quot;&gt;E' → E •$&amp;nbsp; &amp;nbsp;&amp;nbsp;&lt;br&gt;E&amp;nbsp; → E&amp;nbsp;•&quot;+&quot; T&lt;/font&gt;&lt;span style=&quot;font-size: 14px&quot;&gt;&lt;br&gt;&lt;/span&gt;" style="rounded=0;whiteSpace=wrap;html=1;fontFamily=Lucida Console;fontColor=#000000;labelBorderColor=none;labelBackgroundColor=none;fillColor=#FFFFFF;strokeColor=#000;" parent="9" vertex="1">
                    <mxGeometry x="5" y="5" width="110" height="70" as="geometry"/>
                </mxCell>
                <mxCell id="10" value="q&lt;sub&gt;2&lt;/sub&gt;" style="text;html=1;fillColor=none;align=center;verticalAlign=middle;whiteSpace=wrap;rounded=0;fontFamily=Lucida Console;fontSize=12;fontColor=#000000;labelBorderColor=none;labelBackgroundColor=none;" parent="1" vertex="1">
                    <mxGeometry x="400" y="20" width="40" height="20" as="geometry"/>
                </mxCell>
                <mxCell id="11" value="+" style="edgeStyle=none;rounded=0;orthogonalLoop=1;jettySize=auto;html=1;exitX=1;exitY=0.5;exitDx=0;exitDy=0;entryX=0;entryY=0.5;entryDx=0;entryDy=0;fontFamily=Lucida Console;fontSize=12;fontColor=#000000;labelBorderColor=none;labelBackgroundColor=none;strokeColor=#000;" parent="1" source="5" target="8" edge="1">
                    <mxGeometry y="10" relative="1" as="geometry">
                        <mxPoint as="offset"/>
                    </mxGeometry>
                </mxCell>
                <mxCell id="19" value="*" style="edgeStyle=none;rounded=0;orthogonalLoop=1;jettySize=auto;html=1;exitX=0.5;exitY=1;exitDx=0;exitDy=0;entryX=0.5;entryY=0;entryDx=0;entryDy=0;fontFamily=Lucida Console;fontSize=12;fontColor=#000000;labelBorderColor=none;labelBackgroundColor=none;strokeColor=#000;" parent="1" source="12" target="17" edge="1">
                    <mxGeometry y="10" relative="1" as="geometry">
                        <mxPoint as="offset"/>
                    </mxGeometry>
                </mxCell>
                <mxCell id="12" value="&lt;font&gt;&lt;font style=&quot;font-size: 12px&quot;&gt;E → E &quot;+&quot; T•&lt;br&gt;T → T&amp;nbsp;&lt;/font&gt;&lt;font style=&quot;font-size: 12px&quot;&gt;•&quot;*&quot; F&lt;/font&gt;&lt;/font&gt;" style="rounded=0;whiteSpace=wrap;html=1;fontFamily=Lucida Console;fontSize=12;fontColor=#000000;labelBorderColor=none;labelBackgroundColor=none;fillColor=#FFFFFF;strokeColor=#000;" parent="1" vertex="1">
                    <mxGeometry x="520" y="40" width="120" height="80" as="geometry"/>
                </mxCell>
                <mxCell id="16" value="q&lt;sub&gt;3&lt;/sub&gt;" style="text;html=1;fillColor=none;align=center;verticalAlign=middle;whiteSpace=wrap;rounded=0;fontFamily=Lucida Console;fontSize=12;fontColor=#000000;labelBorderColor=none;labelBackgroundColor=none;" parent="1" vertex="1">
                    <mxGeometry x="560" y="20" width="40" height="20" as="geometry"/>
                </mxCell>
                <mxCell id="22" value="F" style="edgeStyle=none;rounded=0;orthogonalLoop=1;jettySize=auto;html=1;exitX=1;exitY=0;exitDx=0;exitDy=0;entryX=0;entryY=0.5;entryDx=0;entryDy=0;fontFamily=Lucida Console;fontSize=12;fontColor=#000000;labelBorderColor=none;labelBackgroundColor=none;strokeColor=#000;" parent="1" source="17" target="20" edge="1">
                    <mxGeometry x="0.25" y="7" relative="1" as="geometry">
                        <mxPoint as="offset"/>
                    </mxGeometry>
                </mxCell>
                <mxCell id="24" value="n" style="edgeStyle=none;rounded=0;orthogonalLoop=1;jettySize=auto;html=1;exitX=0;exitY=0.5;exitDx=0;exitDy=0;entryX=1;entryY=0.5;entryDx=0;entryDy=0;fontFamily=Lucida Console;fontSize=12;fontColor=#000000;labelBorderColor=none;labelBackgroundColor=none;strokeColor=#000;" parent="1" source="17" target="23" edge="1">
                    <mxGeometry y="-10" relative="1" as="geometry">
                        <mxPoint as="offset"/>
                    </mxGeometry>
                </mxCell>
                <mxCell id="17" value="&lt;font style=&quot;font-size: 12px&quot;&gt;T → T &quot;*&quot;&amp;nbsp;•F&lt;br&gt;F →&amp;nbsp;•n&amp;nbsp; &amp;nbsp; &amp;nbsp;&amp;nbsp;&lt;/font&gt;&lt;span style=&quot;font-size: 14px;&quot;&gt;&lt;br&gt;&lt;/span&gt;" style="rounded=0;whiteSpace=wrap;html=1;fontFamily=Lucida Console;fontSize=12;fontColor=#000000;labelBorderColor=none;labelBackgroundColor=none;fillColor=#FFFFFF;strokeColor=#000;" parent="1" vertex="1">
                    <mxGeometry x="520" y="200" width="120" height="80" as="geometry"/>
                </mxCell>
                <mxCell id="18" value="q&lt;sub&gt;4&lt;/sub&gt;" style="text;html=1;fillColor=none;align=center;verticalAlign=middle;whiteSpace=wrap;rounded=0;fontFamily=Lucida Console;fontSize=12;fontColor=#000000;labelBorderColor=none;labelBackgroundColor=none;" parent="1" vertex="1">
                    <mxGeometry x="520" y="180" width="40" height="20" as="geometry"/>
                </mxCell>
                <mxCell id="20" value="&lt;font style=&quot;font-size: 12px&quot;&gt;T → T &quot;*&quot; F•&lt;/font&gt;" style="rounded=0;whiteSpace=wrap;html=1;fontFamily=Lucida Console;fontSize=12;fontColor=#000000;labelBorderColor=none;labelBackgroundColor=none;fillColor=#FFFFFF;strokeColor=#000;" parent="1" vertex="1">
                    <mxGeometry x="680" y="120" width="120" height="80" as="geometry"/>
                </mxCell>
                <mxCell id="21" value="q&lt;sub&gt;5&lt;/sub&gt;" style="text;html=1;fillColor=none;align=center;verticalAlign=middle;whiteSpace=wrap;rounded=0;fontFamily=Lucida Console;fontSize=12;fontColor=#000000;labelBorderColor=none;labelBackgroundColor=none;" parent="1" vertex="1">
                    <mxGeometry x="680" y="100" width="40" height="20" as="geometry"/>
                </mxCell>
                <mxCell id="23" value="&lt;font style=&quot;font-size: 12px&quot;&gt;F → n•&lt;/font&gt;" style="rounded=0;whiteSpace=wrap;html=1;fontFamily=Lucida Console;fontSize=12;fontColor=#000000;labelBorderColor=none;labelBackgroundColor=none;fillColor=#FFFFFF;strokeColor=#000;" parent="1" vertex="1">
                    <mxGeometry x="360" y="200" width="120" height="80" as="geometry"/>
                </mxCell>
                <mxCell id="25" value="q&lt;sub&gt;6&lt;/sub&gt;" style="text;html=1;fillColor=none;align=center;verticalAlign=middle;whiteSpace=wrap;rounded=0;fontFamily=Lucida Console;fontSize=12;fontColor=#000000;labelBorderColor=none;labelBackgroundColor=none;" parent="1" vertex="1">
                    <mxGeometry x="360" y="180" width="40" height="20" as="geometry"/>
                </mxCell>
                <mxCell id="26" value="&lt;font style=&quot;font-size: 12px&quot;&gt;T → F•&lt;/font&gt;" style="rounded=0;whiteSpace=wrap;html=1;fontFamily=Lucida Console;fontSize=12;fontColor=#000000;labelBorderColor=none;labelBackgroundColor=none;fillColor=#FFFFFF;strokeColor=#000;" parent="1" vertex="1">
                    <mxGeometry x="200" y="200" width="120" height="80" as="geometry"/>
                </mxCell>
                <mxCell id="27" value="q&lt;sub&gt;7&lt;/sub&gt;" style="text;html=1;fillColor=none;align=center;verticalAlign=middle;whiteSpace=wrap;rounded=0;fontFamily=Lucida Console;fontSize=12;fontColor=#000000;labelBorderColor=none;labelBackgroundColor=none;" parent="1" vertex="1">
                    <mxGeometry x="200" y="180" width="40" height="20" as="geometry"/>
                </mxCell>
                <mxCell id="39" value="*" style="edgeStyle=orthogonalEdgeStyle;rounded=0;orthogonalLoop=1;jettySize=auto;html=1;exitX=0.5;exitY=1;exitDx=0;exitDy=0;entryX=0.5;entryY=1;entryDx=0;entryDy=0;fontFamily=Lucida Console;fontSize=12;fontColor=#000000;labelBorderColor=none;labelBackgroundColor=none;strokeColor=#000;" parent="1" source="30" target="17" edge="1">
                    <mxGeometry y="10" relative="1" as="geometry">
                        <mxPoint as="offset"/>
                    </mxGeometry>
                </mxCell>
                <mxCell id="30" value="&lt;font&gt;E → T•&amp;nbsp; &amp;nbsp; &amp;nbsp;&amp;nbsp;&lt;br&gt;T → T&amp;nbsp;•&quot;*&quot; F&lt;/font&gt;&lt;span style=&quot;&quot;&gt;&lt;br&gt;&lt;/span&gt;" style="rounded=0;whiteSpace=wrap;html=1;fontFamily=Lucida Console;fontSize=12;fontColor=#000000;labelBorderColor=none;labelBackgroundColor=none;fillColor=#FFFFFF;strokeColor=#000;" parent="1" vertex="1">
                    <mxGeometry x="40" y="200" width="120" height="80" as="geometry"/>
                </mxCell>
                <mxCell id="31" value="q&lt;sub&gt;8&lt;/sub&gt;" style="text;html=1;fillColor=none;align=center;verticalAlign=middle;whiteSpace=wrap;rounded=0;fontFamily=Lucida Console;fontSize=12;fontColor=#000000;labelBorderColor=none;labelBackgroundColor=none;" parent="1" vertex="1">
                    <mxGeometry x="40" y="180" width="40" height="20" as="geometry"/>
                </mxCell>
            </root>
        </mxGraphModel>
    </diagram>
</mxfile>